<?xml version="1.0" standalone="no"?>
<!DOCTYPE svg PUBLIC "-//W3C//DTD SVG 20010904//EN"
 "http://www.w3.org/TR/2001/REC-SVG-20010904/DTD/svg10.dtd">
<svg version="1.0" xmlns="http://www.w3.org/2000/svg"
 width="225.000000pt" height="166.000000pt" viewBox="0 0 225.000000 166.000000"
 preserveAspectRatio="xMidYMid meet">

<g transform="translate(0.000000,166.000000) scale(0.100000,-0.100000)"
fill="#000000" stroke="none">
<path d="M8 927 l2 -724 182 -6 c100 -4 327 -7 506 -7 l324 0 -6 23 c-3 13 -9
56 -12 95 l-7 72 -401 2 -401 3 -3 538 -2 537 785 0 c432 0 784 -3 784 -7 -1
-5 -1 -46 0 -92 1 -75 3 -82 19 -76 9 5 50 18 89 29 l73 21 0 158 0 157 -967
0 -968 0 3 -723z"/>
<path d="M535 1306 c-62 -27 -108 -111 -90 -166 11 -36 64 -88 101 -100 19 -7
50 -9 68 -6 36 7 93 57 107 94 24 64 -5 134 -71 169 -49 26 -72 28 -115 9z"/>
<path d="M1851 1169 c-60 -27 -648 -613 -682 -679 -16 -32 -24 -68 -27 -126
-6 -108 14 -167 79 -238 105 -115 254 -144 394 -76 25 12 156 134 340 315
l299 296 -42 41 -41 42 -295 -292 c-186 -185 -307 -298 -330 -307 -50 -21
-122 -19 -173 6 -116 56 -157 206 -84 307 38 51 393 414 513 523 96 87 99 89
148 89 43 0 56 -5 87 -34 32 -29 37 -39 37 -83 1 -46 -3 -54 -51 -109 -89
-103 -480 -484 -496 -484 -18 0 -47 26 -47 43 0 6 90 101 200 212 110 110 200
205 200 211 0 13 -63 74 -76 74 -10 0 -332 -323 -397 -398 -33 -37 -37 -48
-37 -96 0 -121 122 -197 229 -142 56 30 544 524 570 579 97 200 -116 418 -318
326z"/>
<path d="M1050 1000 c-63 -88 -116 -160 -120 -160 -3 0 -32 27 -65 60 -33 33
-63 59 -66 58 -11 -5 -349 -392 -349 -400 0 -5 134 -8 298 -8 l298 0 19 33
c10 17 79 93 153 169 126 129 133 137 121 160 -24 44 -162 248 -169 248 -3 0
-57 -72 -120 -160z"/>
</g>
</svg>
